<svg xmlns="http://www.w3.org/2000/svg" viewBox="0 0 805 752.56">
    <defs>
        <style>.cls-2{fill:none;stroke:#fff;stroke-linejoin:round;stroke-width:18.42px;}</style>
    </defs>
    <title>logo</title>
    <g id="Layer_1-2">
        <path class="cls-2" d="M766.7 478a203.49 203.49 0 0 0 0-203.49L672.26 111A203.49 203.49 0 0 0 496 9.21H307.14A203.49 203.49 0 0 0 130.92 111L36.47 274.54a203.49 203.49 0 0 0 0 203.49l94.45 163.57a203.49 203.49 0 0 0 176.22 101.75H496A203.49 203.49 0 0 0 672.26 641.6L766.7 478zm-62.52-27.39a148.71 148.71 0 0 0 0-148.71l-86.9-150.51a148.71 148.71 0 0 0-128.8-74.34H314.69a148.71 148.71 0 0 0-128.79 74.36L99 301.92a148.71 148.71 0 0 0 0 148.71l86.9 150.51a148.71 148.71 0 0 0 128.79 74.36h173.8a148.71 148.71 0 0 0 128.79-74.36l86.9-150.51zm-63.35-24.71a99.24 99.24 0 0 0 0-99.24L564.18 193.9a99.24 99.24 0 0 0-85.94-49.62H324.93A99.24 99.24 0 0 0 239 193.9l-76.66 132.76a99.24 99.24 0 0 0 0 99.24L239 558.66a99.24 99.24 0 0 0 85.94 49.62h153.3a99.24 99.24 0 0 0 85.94-49.62l76.65-132.76zm-72.54-.9a97.5 97.5 0 0 0 0-97.5l-41.13-71.24a97.5 97.5 0 0 0-84.44-48.75h-82.27A97.5 97.5 0 0 0 276 256.29l-41.13 71.24a97.5 97.5 0 0 0 0 97.5L276 496.27A97.5 97.5 0 0 0 360.45 545h82.26a97.5 97.5 0 0 0 84.44-48.75L568.29 425zm-76.44.87a99.24 99.24 0 0 0 0-99.24l-2.16-3.74a99.24 99.24 0 0 0-85.94-49.62h-4.31a99.24 99.24 0 0 0-85.94 49.62l-2.16 3.74a99.24 99.24 0 0 0 0 99.24l2.16 3.74a99.24 99.24 0 0 0 85.94 49.62h4.31a99.24 99.24 0 0 0 85.94-49.62l2.16-3.74z"/>
    </g>
</svg>